<?xml version="1.0" standalone="no"?><!DOCTYPE svg PUBLIC "-//W3C//DTD SVG 1.1//EN" "http://www.w3.org/Graphics/SVG/1.1/DTD/svg11.dtd"><svg t="1490861181252" class="icon" style="" viewBox="0 0 1000 1000" version="1.1" xmlns="http://www.w3.org/2000/svg" p-id="2443" xmlns:xlink="http://www.w3.org/1999/xlink" width="200" height="200"><defs><style type="text/css"></style></defs><path d="M720.9225 375.7552c0 0 9.0762 146.6915-147.0815 206.0693 0 0-26.5121 4.9247-35.2976 52.6143 0 0-16.5255 73.5082-70.1754 172.8638 0 0-22.3458 48.5541-44.1419-3.5306 0 0-37.4192 40.0968-42.7468-12.4885 0 0-45.59 27.5074-36.0231-25.1999 0 0-61.278 19.3329-30.7584-29.0173 0 0-59.0974-6.9083-11.9284-40.7464 0 0 186.6123-88.2182 182.8617-134.8126 0 0 6.5338-53.165 30.2048-69.255 0 0-54.1256 32.6908-22.2788-27.0996 0 0-69.2699 30.3134-28.5149-20.9888 0 0-63.8834 38.8627-29.9719-18.0678 0 0-74.4746 27.8871-22.7066-27.7252 0 0-84.951 19.5967-31.43-24.9591 0 0-105.4709-0.0929-32.0876-30.7761 0 0-102.3269-3.0709-26.0364-35.8557 0 0-107.7735-26.495-45.529-39.5652 0 0-104.3266-66.8127-18.897-41.8526 0 0 65.0926 36.0416 160.8217 22.7336 0 0 39.6628-6.3817 124.1231 52.6583 0 0 29.3713 22.07 71.3866-15.1417 0 0 73.9969-72.5318 110.7476-70.6651 0 0 25.0661 0.4187 37.78 30.1076 0 0 28.2191 3.4647 40.3284 8.0116C803.5689 253.0664 717.4717 273.4766 720.9225 375.7552zM729.1593 245.6574c-5.2746 13.5198 8.5935 10.5658 8.5935 10.5658C743.8709 243.9416 729.1593 245.6574 729.1593 245.6574zM589.4031 286.153c-20.8268 7.8597-104.3246-41.31-104.3246-41.31-30.3327-16.1081-71.6874-8.4313-71.6874-8.4313-44.3778 1.0553 6.295-23.0024 6.295-23.0024-56.1253-30.98 1.3352-33.5682 1.3352-33.5682-52.0079-43.6564-1.7569-36.5872-1.7569-36.5872-37.4782-54.1033 17.3759-30.919 17.3759-30.919-11.9894-21.4095-4.1753-47.27-4.1753-47.27 11.3848-35.4989 19.8564-11.5642 19.8564-11.5642 12.4741 97.6158 129.1559 164.3656 129.1559 164.3656C629.4247 258.3348 589.4031 286.153 589.4031 286.153z" p-id="2444" fill="#ffffff"></path></svg>