<?xml version="1.0" standalone="no"?><!DOCTYPE svg PUBLIC "-//W3C//DTD SVG 1.1//EN" "http://www.w3.org/Graphics/SVG/1.1/DTD/svg11.dtd"><svg t="1490933037758" class="icon" style="" viewBox="0 0 1024 1024" version="1.1" xmlns="http://www.w3.org/2000/svg" p-id="2381" xmlns:xlink="http://www.w3.org/1999/xlink" width="200" height="200"><defs><style type="text/css"></style></defs><path d="M954.753 878.662l-216.24-216.308c46.911-61.559 74.816-138.381 74.816-221.75 0-202.28-163.98-366.259-366.259-366.259S80.811 238.324 80.811 440.604 244.79 806.863 447.07 806.863c83.764 0 160.91-28.179 222.614-75.493l216.138 216.208c18.377 18.382 48.453 18.385 66.834 0.008l2.089-2.089C973.127 927.12 973.13 897.045 954.753 878.662zM446.332 714.559c-151.71 0-274.695-122.984-274.695-274.695 0-151.709 122.984-274.694 274.695-274.694 151.709 0 274.694 122.984 274.694 274.694C721.026 591.575 598.041 714.559 446.332 714.559z" p-id="2382" fill="#07b3ff"></path><path d="M594.046 420.585c-9.699-9.699-21.573-9.246-21.573-9.246l-92.414-0.104-0.105-92.414c0 0 0.454-11.875-9.245-21.573 0 0-7.523-7.342-19.67-7.342 0 0-9.971-1.088-18.763 7.704 0 0-9.608 6.708-9.608 21.03l0 92.53-91.399-0.102c-11.513-1.179-21.755 9.065-21.755 9.065-7.977 7.975-8.158 20.666-8.158 20.666 0 11.15 8.34 18.492 8.34 18.492 10.243 10.242 20.576 9.337 20.576 9.337l92.395 0 0 92.395c0 0-0.905 10.333 9.337 20.576 0 0 7.342 8.338 18.491 8.338 0 0 12.691-0.18 20.667-8.157 0 0 10.243-10.243 9.065-21.755l-0.102-91.399 92.53 0c14.322 0 21.029-9.609 21.029-9.609 8.792-8.792 7.705-18.762 7.705-18.762C601.388 428.107 594.046 420.585 594.046 420.585z" p-id="2383" fill="#07b3ff"></path></svg>